<?xml version="1.0" standalone="no"?>
<!DOCTYPE svg PUBLIC "-//W3C//DTD SVG 20010904//EN"
 "http://www.w3.org/TR/2001/REC-SVG-20010904/DTD/svg10.dtd">
<svg version="1.0" xmlns="http://www.w3.org/2000/svg"
 width="700.000000pt" height="700.000000pt" viewBox="0 0 700.000000 700.000000"
 preserveAspectRatio="xMidYMid meet">
<metadata>
Created by potrace 1.11, written by Peter Selinger 2001-2013
</metadata>
<g transform="translate(0.000000,700.000000) scale(0.100000,-0.100000)"
fill="#000000" stroke="none">
<path d="M0 3500 l0 -3500 3500 0 3500 0 0 3500 0 3500 -3500 0 -3500 0 0
-3500z m2215 1080 c69 -228 142 -466 161 -527 l35 -113 538 -2 538 -3 -414
-315 c-228 -173 -423 -322 -435 -331 -20 -16 -19 -20 146 -549 91 -293 164
-535 162 -537 -3 -3 -195 141 -428 319 -233 178 -428 327 -434 331 -6 3 -206
-144 -444 -328 -239 -184 -435 -333 -436 -332 -2 1 72 241 163 534 91 292 163
538 161 545 -3 8 -198 160 -434 338 l-427 325 538 5 539 5 165 538 c91 297
168 532 172 525 4 -7 64 -200 134 -428z m2885 -130 l156 -505 539 -5 538 -5
-427 -325 c-236 -178 -431 -330 -434 -338 -4 -11 291 -979 325 -1069 8 -21 37
-43 -481 355 l-395 303 -431 -332 c-238 -182 -433 -329 -436 -327 -2 3 70 245
162 538 91 293 162 536 157 540 -7 7 -411 313 -750 570 l-113 85 540 3 c297 1
540 5 540 7 0 10 322 1060 328 1070 4 5 11 -6 16 -25 6 -19 80 -262 166 -540z"/>
</g>
</svg>
