<svg xmlns="http://www.w3.org/2000/svg" viewBox="0 0 397 397" aria-hidden="true">
    <g fill="none" color="#11182750" fill-rule="evenodd" transform="translate(10 10)">
        <circle cx="188.19" cy="188.19" r="188.19" stroke="currentColor" stroke-width="20"></circle>
        <path
            d="M108.33 135.54L137.53 262c1.04 4.52 4.97 7.8 9.57 8.01 4.6.21 8.81-2.71 10.25-7.11l31.27-95.46 28.96 95.25c1.35 4.43 5.44 7.42 10.04 7.34 4.61-.09 8.59-3.22 9.77-7.7l33.5-126.46c1.47-5.53-1.8-11.22-7.31-12.69-5.5-1.48-11.14 1.82-12.61 7.35l-24.22 91.43-27.9-91.8c-1.31-4.31-5.26-7.29-9.74-7.34-4.48-.05-8.5 2.84-9.9 7.12l-29.92 91.33-20.88-90.43c-1.29-5.58-6.83-9.05-12.37-7.75-5.55 1.3-9 6.87-7.71 12.45z"
            fill="currentColor" fill-rule="nonzero"></path>
        <path
            d="M308.31 238.72a130.567 130.567 0 01-27.75 41.42c-11.72 11.8-25.68 21.34-41.16 27.93-15.48 6.59-32.49 10.23-50.4 10.24-17.91 0-34.91-3.65-50.4-10.24-15.48-6.59-29.44-16.14-41.16-27.93-11.72-11.8-21.21-25.84-27.75-41.42-6.55-15.58-10.17-32.7-10.17-50.72 0-18.02 3.62-35.14 10.17-50.72a130.567 130.567 0 0127.75-41.42c11.72-11.79 25.68-21.34 41.16-27.93 15.49-6.59 32.49-10.23 50.4-10.24 17.91 0 34.91 3.65 50.4 10.24 15.48 6.59 29.44 16.13 41.16 27.93a130.567 130.567 0 0127.75 41.42c2.22 5.28 8.26 7.74 13.51 5.51 5.24-2.23 7.7-8.32 5.48-13.6a151.4 151.4 0 00-32.16-48.01c-13.58-13.66-29.74-24.72-47.71-32.37-17.97-7.63-37.73-11.86-58.43-11.86-20.7 0-40.46 4.23-58.43 11.87-17.97 7.64-34.13 18.7-47.71 32.37A151.4 151.4 0 0050.7 129.2c-7.6 18.08-11.8 37.97-11.8 58.8 0 20.82 4.2 40.72 11.8 58.8a151.4 151.4 0 0032.16 48.01c13.58 13.66 29.74 24.72 47.71 32.37 17.96 7.65 37.73 11.88 58.43 11.88 20.7 0 40.46-4.23 58.43-11.88 17.97-7.64 34.13-18.7 47.71-32.37a151.4 151.4 0 0032.16-48.01c2.22-5.28-.24-11.36-5.48-13.59-5.25-2.23-11.29.23-13.51 5.51z"
            fill="currentColor" fill-rule="nonzero"></path>
        <path
            d="M325.72 196.21l2.92-3.38c1.94-2.26 3.28-3.46 5.68-3.46 2.17 0 4.11 1.88 4.11 4.74 0 2.03-1.72 4.44-4.11 7.15l-1.87 2.03 5.08 5.79c1.04 1.21 1.64 2.03 1.64 3.76 0 2.56-2.39 5.04-5.23 5.04-1.72 0-2.84-.53-3.96-1.73l-5.16-5.42c-4.86 4.29-9.79 7.15-16.44 7.15-10.02 0-18.31-5.72-18.31-16.25 0-7.44 5.16-12.93 11.29-16.32-2.92-2.93-4.94-5.94-4.94-10.15 0-8.57 8-12.64 15.69-12.64 6.72 0 15.25 3.84 15.25 11.81 0 6.02-4.71 10.68-9.49 13.16l7.85 8.72zm-18.45-4.74c-3.37 2.18-6.43 4.81-6.43 9.1 0 4.74 3.21 7.37 7.77 7.37 4.03 0 6.65-1.65 9.49-4.36l-10.83-12.11zm4.85-20.38c-1.94 0-4.48 1.5-4.48 3.76s1.04 3.61 3.96 6.47c2.24-1.13 5.46-3.16 5.46-5.87-.01-3.39-3-4.36-4.94-4.36z"
            fill="currentColor" fill-rule="nonzero"></path>
    </g>
</svg>